<?xml version="1.0" encoding="iso-8859-1"?>
<!-- Generator: Adobe Illustrator 19.0.0, SVG Export Plug-In . SVG Version: 6.00 Build 0)  -->
<svg version="1.1" id="Capa_1" xmlns="http://www.w3.org/2000/svg" xmlns:xlink="http://www.w3.org/1999/xlink" x="0px" y="0px"
	 viewBox="0 0 512 512" style="enable-background:new 0 0 512 512;" xml:space="preserve">
<path style="fill:#FEDB41;" d="M143.5,60c-66.301,0-120,53.699-120,120c0,36.299,16.8,70.8,45,93.6V436c0,3.9,1.5,7.8,4.501,10.499
	l60,61C135.7,510.5,139.6,512,143.5,512s7.8-1.5,10.499-4.501l60-61c6-5.7,6-15.3,0-21L194.801,406L214,386.499
	c3-2.699,4.5-6.599,4.5-10.499s-1.5-8.8-4.501-11.501L194.801,345L214,325.499c3-2.699,4.5-6.599,4.5-10.499v-41.4
	c28.2-22.8,45-57.301,45-93.6C263.5,113.699,209.801,60,143.5,60z M143.5,210c-24.901,0-45-20.101-45-45c0-24.901,20.099-45,45-45
	s45,20.099,45,45C188.5,189.899,168.401,210,143.5,210z"/>
<path style="fill:#FFAE34;" d="M263.5,180c0,36.299-16.8,70.8-45,93.6V315c0,3.9-1.5,7.8-4.501,10.499L194.801,345L214,364.499
	c3,2.701,4.5,7.601,4.5,11.501s-1.5,7.8-4.501,10.499L194.801,406L214,425.499c6,5.7,6,15.3,0,21l-60,61
	c-2.7,3.001-6.6,4.501-10.5,4.501V210c24.901,0,45-20.101,45-45c0-24.901-20.099-45-45-45V60C209.801,60,263.5,113.699,263.5,180z"
	/>
<path style="fill:#787780;" d="M398.5,75v60c0,8.399-6.599,15-15,15s-15-6.601-15-15V75c0-24.901-20.099-45-45-45h-120
	c-24.901,0-45,20.099-45,45v60c0,8.399-6.599,15-15,15s-15-6.601-15-15V75c0-16.8,5.4-32.401,15-44.7C157,11.999,178.9,0,203.5,0
	h120C364.9,0,398.5,33.6,398.5,75z"/>
<path style="fill:#FEA832;" d="M158.5,255v30c0,8.399-6.599,15-15,15s-15-6.601-15-15v-30c0-8.401,6.599-15,15-15
	S158.5,246.599,158.5,255z"/>
<path style="fill:#FE9923;" d="M158.5,255v30c0,8.399-6.599,15-15,15v-60C151.901,240,158.5,246.599,158.5,255z"/>
<path style="fill:#57555C;" d="M398.5,75v60c0,8.399-6.599,15-15,15s-15-6.601-15-15V75c0-24.901-20.099-45-45-45h-120
	c-24.901,0-45,20.099-45,45v60c0,8.399-6.599,15-15,15V30.3C157,11.999,178.9,0,203.5,0h120C364.9,0,398.5,33.6,398.5,75z"/>
<path style="fill:#1689FC;" d="M383.5,240c-57.9,0-105,47.1-105,105v31c0,8.401,6.599,15,15,15h180c8.401,0,15-6.599,15-15v-31
	C488.5,287.1,441.4,240,383.5,240z"/>
<path style="fill:#415BE8;" d="M488.5,345v31c0,8.401-6.599,15-15,15h-90V240C441.4,240,488.5,287.1,488.5,345z"/>
<path style="fill:#17ACE8;" d="M383.5,120c-41.4,0-75,33.6-75,75s33.6,75,75,75s75-33.6,75-75S424.9,120,383.5,120z"/>
<path style="fill:#1689FC;" d="M458.5,195c0,41.4-33.6,75-75,75V120C424.9,120,458.5,153.6,458.5,195z"/>
<g>
</g>
<g>
</g>
<g>
</g>
<g>
</g>
<g>
</g>
<g>
</g>
<g>
</g>
<g>
</g>
<g>
</g>
<g>
</g>
<g>
</g>
<g>
</g>
<g>
</g>
<g>
</g>
<g>
</g>
</svg>
