<svg id="color" enable-background="new 0 0 24 24" height="512" viewBox="0 0 24 24" width="512" xmlns="http://www.w3.org/2000/svg"><path d="m21.25 24h-16.75c-1.517 0-2.75-1.233-2.75-2.75v-18.5c0-1.517 1.233-2.75 2.75-2.75h16.75c1.517 0 2.75 1.233 2.75 2.75v18.5c0 1.517-1.233 2.75-2.75 2.75z" fill="#03a9f4"/><path d="m4.25 9h-3.5c-.414 0-.75-.336-.75-.75v-2.5c0-.414.336-.75.75-.75h3.5c.414 0 .75.336.75.75v2.5c0 .414-.336.75-.75.75z" fill="#1976d2"/><path d="m4.25 19h-3.5c-.414 0-.75-.336-.75-.75v-2.5c0-.414.336-.75.75-.75h3.5c.414 0 .75.336.75.75v2.5c0 .414-.336.75-.75.75z" fill="#1976d2"/><path d="m13 18c-1.604 0-3.111-.624-4.243-1.756-1.133-1.133-1.757-2.64-1.757-4.244s.624-3.111 1.757-4.244c1.132-1.132 2.639-1.756 4.243-1.756s3.111.624 4.243 1.756c1.133 1.133 1.757 2.64 1.757 4.244s-.624 3.111-1.757 4.244c-1.132 1.132-2.639 1.756-4.243 1.756z" fill="#607d8b"/><g fill="#455a64"><path d="m13 10.636c-.345 0-.625-.28-.625-.625v-2.386c0-.345.28-.625.625-.625s.625.28.625.625v2.386c0 .346-.28.625-.625.625z"/><path d="m11.592 11.217c-.16 0-.32-.061-.442-.183l-1.686-1.687c-.244-.244-.244-.64 0-.884s.64-.244.884 0l1.686 1.687c.244.244.244.64 0 .884-.122.122-.282.183-.442.183z"/><path d="m11.011 12.625h-2.386c-.345 0-.625-.28-.625-.625s.28-.625.625-.625h2.386c.345 0 .625.28.625.625s-.28.625-.625.625z"/><path d="m13 17c-.345 0-.625-.28-.625-.625v-2.386c0-.345.28-.625.625-.625s.625.28.625.625v2.386c0 .345-.28.625-.625.625z"/><path d="m16.094 15.719c-.16 0-.32-.061-.442-.183l-1.686-1.687c-.244-.244-.244-.64 0-.884s.64-.244.884 0l1.686 1.687c.244.244.244.64 0 .884-.122.122-.282.183-.442.183z"/><path d="m17.375 12.625h-2.386c-.345 0-.625-.28-.625-.625s.28-.625.625-.625h2.386c.345 0 .625.28.625.625s-.28.625-.625.625z"/><path d="m14.408 11.217c-.16 0-.32-.061-.442-.183-.244-.244-.244-.64 0-.884l1.686-1.687c.244-.244.64-.244.884 0s.244.64 0 .884l-1.686 1.687c-.122.122-.282.183-.442.183z"/><path d="m9.906 15.719c-.16 0-.32-.061-.442-.183-.244-.244-.244-.64 0-.884l1.686-1.687c.244-.244.64-.244.884 0s.244.64 0 .884l-1.686 1.687c-.122.122-.282.183-.442.183z"/></g><path d="m13 15.021c-.792 0-1.566-.322-2.123-.883-.566-.569-.877-1.328-.877-2.137s.311-1.568.877-2.138c1.113-1.122 3.133-1.122 4.246 0 .566.569.877 1.328.877 2.138s-.311 1.568-.877 2.138c-.557.561-1.331.882-2.123.882z" fill="#eceff1"/></svg>